<svg width="63" height="63" viewBox="0 0 63 63" fill="none" xmlns="http://www.w3.org/2000/svg">
<g opacity="0.75">
<circle cx="31.25" cy="31.25" r="29.75" stroke="white" stroke-width="3"/>
<path d="M41.8288 27.9334L41.573 39.1112C41.5838 39.7537 41.3171 40.3471 40.8434 40.8208C40.3697 41.2945 39.7817 41.5558 39.1338 41.5504L27.9342 41.8281C26.6058 41.8607 25.5495 40.8045 25.5822 39.476C25.6148 38.1475 26.7147 37.0477 28.0431 37.015L33.4115 36.8953L21.5967 25.0805C20.6712 24.1549 20.7038 22.6304 21.6675 21.6667C22.6312 20.703 24.1557 20.6704 25.0758 21.5905L36.8906 33.4053L37.0104 28.0369C37.043 26.7084 38.1429 25.6086 39.4713 25.5759C40.8053 25.5487 41.8561 26.5995 41.8288 27.9334Z" fill="white"/>
</g>
</svg>
