<svg width="44" height="44" viewBox="0 0 44 44" fill="none" xmlns="http://www.w3.org/2000/svg">
<path d="M38.5 17.875C38.1353 17.875 37.7856 18.0199 37.5277 18.2777C37.2699 18.5356 37.125 18.8853 37.125 19.25V30.25C37.125 30.6147 36.9801 30.9644 36.7223 31.2223C36.4644 31.4801 36.1147 31.625 35.75 31.625H8.25C7.88533 31.625 7.53559 31.4801 7.27773 31.2223C7.01987 30.9644 6.875 30.6147 6.875 30.25V19.25C6.875 18.8853 6.73013 18.5356 6.47227 18.2777C6.21441 18.0199 5.86467 17.875 5.5 17.875C5.13533 17.875 4.78559 18.0199 4.52773 18.2777C4.26987 18.5356 4.125 18.8853 4.125 19.25V30.25C4.12596 31.3436 4.56119 32.3922 5.335 33.165C6.10785 33.9388 7.15635 34.374 8.25 34.375H35.75C36.8437 34.374 37.8922 33.9388 38.665 33.165C39.4388 32.3922 39.874 31.3436 39.875 30.25V19.25C39.875 18.8853 39.7301 18.5356 39.4723 18.2777C39.2144 18.0199 38.8647 17.875 38.5 17.875Z" fill="white"/>
<path d="M21.1746 25.85C21.4126 26.0285 21.7021 26.125 21.9996 26.125C22.2971 26.125 22.5866 26.0285 22.8246 25.85L39.0633 13.6675C39.3166 13.4765 39.4961 13.2037 39.5713 12.8955C39.6465 12.5872 39.6127 12.2625 39.4758 11.9763C39.271 11.5532 38.9968 11.1674 38.6646 10.835C37.8917 10.0612 36.8432 9.62596 35.7496 9.625H8.24956C7.15591 9.62596 6.10741 10.0612 5.33456 10.835C5.0023 11.1674 4.72809 11.5532 4.52331 11.9763C4.38638 12.2625 4.35265 12.5872 4.42783 12.8955C4.50301 13.2037 4.68248 13.4765 4.93581 13.6675L21.1746 25.85ZM8.24956 12.375H35.7496C35.8771 12.3549 36.007 12.3549 36.1346 12.375L21.9996 23.0312L7.86456 12.375C7.99211 12.3549 8.12201 12.3549 8.24956 12.375Z" fill="white"/>
</svg>
