<svg width="35" height="35" viewBox="0 0 35 35" fill="none" xmlns="http://www.w3.org/2000/svg">
<path d="M33.249 25.2081V30.0254C33.2508 30.4726 33.159 30.9153 32.9795 31.3251C32.8 31.7348 32.5367 32.1026 32.2065 32.405C31.8763 32.7073 31.4865 32.9375 31.062 33.0807C30.6376 33.224 30.1878 33.2772 29.7415 33.237C24.7905 32.7001 20.0347 31.0116 15.8562 28.3073C11.9687 25.8419 8.67282 22.5525 6.20254 18.6727C3.48338 14.4836 1.79119 9.71413 1.26306 4.75072C1.22285 4.30667 1.27573 3.85914 1.41832 3.4366C1.56092 3.01407 1.7901 2.6258 2.09129 2.29651C2.39248 1.96721 2.75907 1.70412 3.16772 1.52397C3.57637 1.34383 4.01813 1.25058 4.46487 1.25016H9.29173C10.0726 1.24249 10.8295 1.51844 11.4216 2.02659C12.0136 2.53475 12.4003 3.24041 12.5096 4.01207C12.7134 5.55371 13.0912 7.0674 13.6359 8.52426C13.8524 9.09901 13.8992 9.72363 13.7709 10.3241C13.6426 10.9246 13.3445 11.4758 12.9119 11.9124L10.8685 13.9517C13.1589 17.9718 16.4941 21.3004 20.5222 23.5863L22.5656 21.547C23.003 21.1153 23.5553 20.8177 24.157 20.6897C24.7587 20.5616 25.3846 20.6084 25.9605 20.8244C27.4202 21.368 28.9369 21.7451 30.4816 21.9484C31.2632 22.0585 31.977 22.4514 32.4872 23.0524C32.9975 23.6534 33.2686 24.4206 33.249 25.2081Z" stroke="white" stroke-width="2.5" stroke-linecap="round" stroke-linejoin="round"/>
</svg>
