<svg width="32" height="32" viewBox="0 0 32 32" fill="none" xmlns="http://www.w3.org/2000/svg">
<g clip-path="url(#clip0_1_10277)">
<path d="M2.66602 13.3333C2.66602 24.6547 14.834 31.544 15.3513 31.832C15.5495 31.9422 15.7726 32.0001 15.9993 32.0001C16.2261 32.0001 16.4492 31.9422 16.6473 31.832C17.1647 31.544 29.3327 24.6547 29.3327 13.3333C29.3327 9.79711 27.9279 6.40573 25.4274 3.90524C22.927 1.40476 19.5356 0 15.9993 0C12.4631 0 9.07174 1.40476 6.57126 3.90524C4.07077 6.40573 2.66602 9.79711 2.66602 13.3333ZM15.9993 2.66667C18.8273 2.66984 21.5386 3.79467 23.5383 5.79437C25.538 7.79407 26.6628 10.5053 26.666 13.3333C26.666 21.6987 18.3993 27.5733 15.9993 29.1067C13.5993 27.5733 5.33268 21.6987 5.33268 13.3333C5.33586 10.5053 6.46068 7.79407 8.46038 5.79437C10.4601 3.79467 13.1713 2.66984 15.9993 2.66667Z" fill="white"/>
<path d="M16.0007 20C17.3192 20 18.6081 19.609 19.7045 18.8764C20.8008 18.1439 21.6553 17.1027 22.1598 15.8845C22.6644 14.6663 22.7965 13.3259 22.5392 12.0327C22.282 10.7395 21.647 9.5516 20.7147 8.61925C19.7823 7.6869 18.5945 7.05196 17.3013 6.79473C16.008 6.53749 14.6676 6.66951 13.4494 7.1741C12.2313 7.67868 11.1901 8.53317 10.4575 9.62949C9.72498 10.7258 9.33398 12.0148 9.33398 13.3333C9.3361 15.1008 10.0392 16.7952 11.2889 18.045C12.5387 19.2948 14.2332 19.9978 16.0007 20ZM16.0007 9.3333C16.7918 9.3333 17.5651 9.56789 18.2229 10.0074C18.8807 10.4469 19.3934 11.0717 19.6962 11.8026C19.9989 12.5335 20.0781 13.3377 19.9238 14.1137C19.7695 14.8896 19.3885 15.6023 18.8291 16.1617C18.2697 16.7211 17.5569 17.1021 16.781 17.2564C16.0051 17.4108 15.2008 17.3316 14.4699 17.0288C13.739 16.7261 13.1143 16.2134 12.6748 15.5556C12.2352 14.8978 12.0007 14.1244 12.0007 13.3333C12.0007 12.2724 12.4221 11.255 13.1722 10.5049C13.9224 9.75472 14.9398 9.3333 16.0007 9.3333Z" fill="white"/>
</g>
<defs>
<clipPath id="clip0_1_10277">
<rect width="32" height="32" fill="white"/>
</clipPath>
</defs>
</svg>
