<svg width="17" height="16" viewBox="0 0 17 16" fill="none" xmlns="http://www.w3.org/2000/svg">
<path d="M16.7036 1.66225C16.5071 1.23475 16.0909 0.96875 15.6177 0.96875H1.38428C0.911058 0.96875 0.494839 1.23475 0.297714 1.66225C0.102371 2.08619 0.170058 2.57069 0.474058 2.92575L0.474652 2.92634L6.12596 9.50153V14.625C6.12596 14.8441 6.2465 15.0454 6.43946 15.1487C6.52734 15.1956 6.62353 15.2188 6.71971 15.2188C6.8349 15.2188 6.9495 15.1849 7.04925 15.119L10.6117 12.744C10.7768 12.6336 10.876 12.4483 10.876 12.25V9.50153L16.5279 2.92634C16.8319 2.57069 16.8996 2.08619 16.7036 1.66225Z" fill="white"/>
</svg>
