<svg width="82" height="82" viewBox="0 0 82 82" fill="none" xmlns="http://www.w3.org/2000/svg">
<rect width="82" height="82" rx="20" fill="#D9D9D9"/>
<path d="M39.9969 18.0539C38.9844 18.1946 38 18.5133 36.9313 19.0383C33.875 20.5289 31.9063 23.3696 31.5125 26.8477C31.2782 28.9946 31.8407 31.2914 33.0782 33.1946C36.0407 37.7321 42.1625 38.9883 46.7282 35.9977C49.5688 34.1414 51.3219 30.6258 51.0969 27.2321C50.7688 22.1883 46.6907 18.1946 41.6657 18.0071C41.075 17.9883 40.325 18.0071 39.9969 18.0539ZM46.6063 23.3039C47.2532 23.6883 47.3938 24.5977 46.925 25.2352C46.775 25.4321 45.125 27.1289 43.25 28.9946C39.5282 32.6883 39.5 32.7164 38.7032 32.5008C38.4969 32.4446 38.2157 32.2852 38.0844 32.1446C37.9532 31.9946 37.3063 30.9539 36.6407 29.8196C35.4594 27.7946 35.4407 27.7477 35.4313 27.1758C35.4313 26.6883 35.4688 26.5664 35.6657 26.3508C36.2938 25.6758 37.1 25.6664 37.6907 26.3227C37.8032 26.4352 38.1594 26.9977 38.4782 27.5696C38.7969 28.1321 39.125 28.7039 39.2 28.8258C39.3407 29.0508 39.3594 29.0321 42.2188 26.1914C43.7938 24.6164 45.1719 23.2758 45.275 23.2196C45.5844 23.0602 46.2782 23.0977 46.6063 23.3039Z" fill="#CA1D1D"/>
<path d="M55.3629 18.5695C55.0066 19.9664 53.891 21.1101 52.541 21.457L52.0254 21.5976L52.4473 21.7101C53.8441 22.0851 54.866 23.0695 55.316 24.4664C55.4473 24.8601 55.5316 25.0382 55.541 24.8976C55.5504 24.5601 55.9254 23.6789 56.2816 23.1914C56.7129 22.5914 57.416 22.0945 58.2316 21.8039L58.9441 21.5507L58.5785 21.4945C57.9691 21.3914 57.1066 20.9039 56.591 20.3695C56.066 19.7976 55.7848 19.3007 55.5973 18.5976L55.4754 18.1195L55.3629 18.5695Z" fill="#CA1D1D"/>
<path d="M26.4781 28.001C26.4781 28.3385 26.0281 29.1541 25.6156 29.576C25.1937 29.9978 24.7156 30.2885 24.0875 30.4853C23.8812 30.551 23.7968 30.6072 23.9 30.6072C24.2562 30.626 25.2125 31.151 25.6156 31.5635C26.0281 31.9853 26.375 32.5947 26.4781 33.0916C26.5343 33.3728 26.5343 33.3728 26.7031 32.876C27.0406 31.8353 27.8468 31.0197 28.8218 30.7385L29.3468 30.5791L28.775 30.3822C27.7812 30.0541 27.0406 29.3041 26.7125 28.2916C26.5343 27.7666 26.4781 27.6916 26.4781 28.001Z" fill="#CA1D1D"/>
<path d="M22.0346 37.5725C19.7283 39.8975 18.3502 42.7568 18.0408 45.9068C17.9377 46.9287 18.0408 48.635 18.2283 48.9818C18.3127 49.1412 20.2065 50.0225 20.4596 50.0225C20.5346 50.0225 20.5721 49.8537 20.5721 49.5162C20.5721 48.71 20.8252 46.9662 21.0877 45.9912C21.819 43.3006 23.0565 41.1725 25.1002 39.11C25.7096 38.5006 26.1971 37.985 26.1783 37.9756C25.8408 37.7225 23.5065 36.5225 23.3283 36.5225C23.1502 36.5225 22.8315 36.7756 22.0346 37.5725Z" fill="#CA1D1D"/>
<path d="M57.7442 37.2256C57.0786 37.61 56.4879 37.9381 56.4411 37.9568C56.3942 37.9756 56.8161 38.4443 57.3879 39.0162C60.2192 41.81 61.7192 45.1006 61.9723 49.0568C62.0192 49.7225 62.0754 50.0225 62.1504 50.0225C62.3661 50.0225 64.2129 49.1787 64.3254 49.0287C64.4754 48.8131 64.5879 47.7912 64.5786 46.6943C64.5317 43.4412 63.0504 40.085 60.5473 37.5725C59.6848 36.7193 59.4411 36.5225 59.2254 36.5318C59.0754 36.5318 58.4286 36.8412 57.7442 37.2256Z" fill="#CA1D1D"/>
<path d="M25.9533 40.1977C24.7439 41.4445 24.0783 42.3539 23.4033 43.7039C22.6346 45.232 22.1096 47.1633 22.0064 48.8039L21.9502 49.6945L24.4721 50.9883C26.9564 52.2633 27.0033 52.2914 27.6596 52.9945L28.3252 53.707L28.7564 52.957C29.4971 51.6633 30.3033 51.1758 31.5502 51.2602C32.5627 51.3352 33.4721 52.0008 33.8283 52.9477L33.9971 53.3695L34.4283 53.2852C34.9346 53.1914 35.5814 53.3039 36.1252 53.5852C36.5939 53.8195 37.2314 54.5508 37.3627 54.9914L37.4658 55.3289H38.2814C38.9846 55.3195 39.1533 55.357 39.5658 55.5727C40.1283 55.8727 40.6627 56.4539 40.8689 56.9977L41.0189 57.3914L41.6658 57.3539C42.0314 57.3352 42.4627 57.3633 42.6689 57.4289C43.2221 57.6164 43.8127 58.0664 44.1127 58.5352C44.3564 58.9195 44.5908 59.0883 45.9971 59.9039C47.3658 60.6914 47.6752 60.832 48.0221 60.832C49.0064 60.832 49.5783 59.6695 48.9689 58.9008C48.8658 58.7695 47.9002 58.1414 46.8221 57.5133C44.4877 56.1633 44.3189 55.9945 44.7689 55.4227C45.1064 54.9914 45.3502 55.0758 47.6002 56.3789C50.2346 57.907 50.2158 57.8977 50.6471 57.8977C51.6783 57.8977 52.3252 56.6227 51.7158 55.7695C51.6033 55.6102 50.7783 55.0758 49.5877 54.3914C48.5283 53.7727 47.5721 53.1633 47.4689 53.032C47.1502 52.6383 47.4689 51.9914 47.9846 51.9914C48.0971 51.9914 49.2221 52.5914 50.4783 53.3133C52.9346 54.7289 53.2814 54.8602 53.8252 54.5789C54.3314 54.3258 54.6033 53.9133 54.6033 53.407C54.6033 52.807 54.3314 52.4133 53.6189 51.982C52.5314 51.3258 46.8596 48.0727 46.3908 47.8383C45.5189 47.3977 44.6846 47.182 43.8783 47.182C42.8658 47.182 42.1721 47.3789 40.7002 48.0633C38.2721 49.1883 37.9064 49.3102 36.7908 49.3195C35.8346 49.3195 35.7689 49.3102 35.1033 48.9727C33.6596 48.2602 32.9564 47.1445 33.2283 46.0008C33.4158 45.2227 33.7439 44.9414 36.6408 43.1414C38.1127 42.2227 39.3033 41.4445 39.2752 41.3977C39.2564 41.3602 38.9283 41.2289 38.5533 41.107C37.7658 40.8539 36.9314 40.8352 33.6971 40.9664C32.0564 41.032 31.6533 41.0227 30.9502 40.8914C29.8814 40.6852 28.6814 40.2633 27.7252 39.7477C27.2939 39.5227 26.9096 39.3352 26.8721 39.3352C26.8252 39.3352 26.4127 39.7289 25.9533 40.1977Z" fill="#CA1D1D"/>
<path d="M55.4 39.4189C55.1 39.7096 53.1969 40.5627 52.4282 40.7502C51.0313 41.0783 49.7469 41.0408 48.0875 40.6002C46.85 40.2721 46.7188 40.2533 45.6969 40.3002C44.525 40.3471 43.6719 40.5721 42.575 41.1252C41.7782 41.5283 35.1219 45.6814 34.8032 45.9721C34.2875 46.4502 34.5875 47.1252 35.525 47.6502C36.0032 47.9127 36.1813 47.9596 36.6969 47.9596C37.5219 47.9596 37.8032 47.8658 39.65 47.0221C41.75 46.0564 42.3219 45.8877 43.5407 45.8314C44.6563 45.7752 45.3969 45.9158 46.4563 46.3564C46.8125 46.5064 48.8188 47.6127 50.9188 48.8221C53.6469 50.3877 54.8657 51.1283 55.1844 51.4471L55.6344 51.8877L58.1188 50.7439L60.6032 49.6096V49.1221C60.6032 48.3439 60.2563 46.5158 59.9094 45.4752C59.2532 43.5252 58.2407 41.8752 56.7219 40.3002C55.8407 39.3814 55.5969 39.2221 55.4 39.4189Z" fill="#CA1D1D"/>
<path d="M30.9316 52.6566C30.5004 52.7785 30.2379 53.116 29.3473 54.6629C28.7285 55.7504 28.541 56.1535 28.541 56.4254C28.541 57.6441 29.9941 58.2347 30.8098 57.3535C31.2129 56.9222 32.591 54.4472 32.6379 54.0629C32.7598 53.1629 31.8223 52.3941 30.9316 52.6566Z" fill="#CA1D1D"/>
<path d="M34.3066 54.7477C34.1566 54.8133 33.9504 54.954 33.866 55.0477C33.7816 55.1508 33.1348 56.2196 32.441 57.429C31.316 59.3696 31.166 59.679 31.166 60.054C31.166 61.0665 32.1598 61.6571 33.0973 61.2165C33.4441 61.0477 33.5379 60.9071 35.2816 57.8602C36.0316 56.5571 36.1348 56.3133 36.1348 55.9196C36.1348 54.9915 35.1691 54.3727 34.3066 54.7477Z" fill="#CA1D1D"/>
<path d="M37.6629 56.8568C37.3066 57.0818 37.3441 57.0255 36.0973 59.2005C35.2348 60.7099 35.1035 60.9911 35.1035 61.3568C35.1035 62.2099 35.6848 62.7349 36.5285 62.6599C36.866 62.6224 37.0629 62.538 37.2598 62.3505C37.5973 62.0318 39.5848 58.6005 39.6598 58.2068C39.7348 57.813 39.566 57.3255 39.2285 57.0068C38.8535 56.6505 38.1035 56.5755 37.6629 56.8568Z" fill="#CA1D1D"/>
<path d="M41.5253 58.713C41.0847 58.8255 40.7472 59.2474 39.9597 60.6255C39.5097 61.4224 39.1159 62.2005 39.0784 62.3599C39.0409 62.5567 39.0878 62.8005 39.219 63.0911C39.369 63.4474 39.4909 63.5599 39.8472 63.7192C40.3253 63.9349 40.6909 63.9067 41.1409 63.6349C41.3097 63.5317 41.7034 62.9692 42.2565 62.0224C42.9503 60.8317 43.1097 60.4849 43.1378 60.1005C43.1847 59.5849 42.9784 59.1536 42.5847 58.8911C42.3315 58.7317 41.7972 58.638 41.5253 58.713Z" fill="#CA1D1D"/>
<path d="M44.0565 61.5818C43.8034 62.0881 43.5784 62.5475 43.5596 62.585C43.5034 62.735 44.6378 63.2412 45.0128 63.2412C45.5284 63.2412 45.9409 62.9506 46.0815 62.5006C46.2784 61.8443 46.0065 61.4693 44.9471 60.8787L44.5253 60.6537L44.0565 61.5818Z" fill="#CA1D1D"/>
</svg>
