<svg width="39" height="39" viewBox="0 0 39 39" fill="none" xmlns="http://www.w3.org/2000/svg">
<path fill-rule="evenodd" clip-rule="evenodd" d="M11.505 15.795L8.775 18.525L17.55 27.3L37.05 7.8L34.32 5.07L17.55 21.84L11.505 15.795ZM35.1 19.5C35.1 28.08 28.08 35.1 19.5 35.1C10.92 35.1 3.9 28.08 3.9 19.5C3.9 10.92 10.92 3.9 19.5 3.9C21.06 3.9 22.425 4.095 23.79 4.485L26.91 1.365C24.57 0.585 22.035 0 19.5 0C8.775 0 0 8.775 0 19.5C0 30.225 8.775 39 19.5 39C30.225 39 39 30.225 39 19.5H35.1Z" fill="white"/>
</svg>
