<svg width="82" height="82" viewBox="0 0 82 82" fill="none" xmlns="http://www.w3.org/2000/svg">
<rect width="82" height="82" rx="20" fill="#D9D9D9"/>
<path d="M33.4373 21.8652L25.8955 23.7213L25.9291 32.1281C25.9627 41.3664 25.9459 41.0724 26.5002 43.34C27.5752 47.682 30.2795 51.5957 34.0084 54.1908C34.7307 54.6947 41.0043 58.3228 41.1471 58.3144C41.2646 58.306 47.3031 54.8375 48.017 54.3672C51.8215 51.8392 54.6098 47.8836 55.7603 43.3904C56.2978 41.274 56.3062 41.1228 56.3062 31.9517V23.6877L56.1215 23.6457C56.0123 23.6205 52.6025 22.789 48.5461 21.798C44.4896 20.807 41.1219 20.0008 41.0715 20.0008C41.0211 20.0092 37.5861 20.849 33.4373 21.8652ZM43.1459 29.1131L45.0523 31.725L48.0506 32.7076C49.7051 33.2451 51.1244 33.7154 51.2 33.749C51.3176 33.7994 51.0152 34.2697 49.4195 36.4785L47.4879 39.1492V42.4582C47.4879 44.2806 47.4627 45.7756 47.4375 45.7756C47.4039 45.7756 45.9762 45.3221 44.2629 44.7678L41.1471 43.7683L38.0396 44.7678C36.3264 45.3221 34.907 45.7756 34.8734 45.7756C34.8314 45.7756 34.8062 44.289 34.8062 42.475V39.166L32.8662 36.4869C31.2201 34.2109 30.9514 33.7994 31.0857 33.749C31.1697 33.7154 32.5807 33.2451 34.2268 32.7076L37.225 31.725L39.1818 29.0543C40.2568 27.5762 41.1639 26.4004 41.1891 26.434C41.2227 26.476 42.1045 27.6769 43.1459 29.1131Z" fill="#CA1D1D"/>
<path d="M39.9631 32.2539L38.7957 33.858L36.8893 34.4879L34.9912 35.1178L36.1586 36.7303L37.326 38.3428V40.3332C37.326 41.4334 37.3428 42.332 37.368 42.332C37.3932 42.332 38.2246 42.0633 39.224 41.7441C40.2318 41.4166 41.0885 41.1562 41.1473 41.1562C41.2061 41.1562 42.0627 41.4166 43.0705 41.7441C44.0699 42.0633 44.9014 42.332 44.9266 42.332C44.9518 42.332 44.9686 41.4334 44.9686 40.3248V38.326L46.1107 36.7471C46.7322 35.882 47.2193 35.143 47.1773 35.1094C47.1438 35.0758 46.2955 34.7818 45.3045 34.4543L43.4988 33.858L42.3482 32.2875C41.7184 31.4309 41.1809 30.7086 41.1641 30.6918C41.1473 30.6666 40.6014 31.3721 39.9631 32.2539Z" fill="#CA1D1D"/>
<path d="M23.0067 52.8301C21.3438 54.8625 19.9916 56.5506 20 56.5842C20.0168 56.6514 20.3024 56.7521 23.2586 57.6928L25.1063 58.2891L26.1981 60.1535C26.7944 61.1865 27.4075 62.2447 27.567 62.5135L27.8442 62.9922L30.3637 59.784C31.7411 58.0119 32.8748 56.5422 32.8748 56.517C32.8748 56.4918 32.5977 56.2818 32.2702 56.0467C30.8592 55.0641 29.2383 53.5271 28.0457 52.0322C27.525 51.3939 26.3996 49.7227 26.2317 49.3615C26.1729 49.2355 26.1057 49.1348 26.0805 49.1432C26.0553 49.1432 24.6696 50.8061 23.0067 52.8301Z" fill="#CA1D1D"/>
<path d="M55.9703 49.4959C54.7273 51.7383 52.5689 54.1402 50.2341 55.8787C49.6378 56.3238 49.3607 56.5842 49.4111 56.643C49.4447 56.6934 50.5785 58.1463 51.9222 59.8596L54.3578 62.9922L55.7183 60.6574C56.4658 59.3809 57.0873 58.3227 57.1041 58.3059C57.1209 58.2891 58.2546 57.9195 59.6404 57.4744C61.0177 57.0377 62.1683 56.6514 62.2019 56.6178C62.2439 56.5842 56.7681 49.7898 56.1886 49.16C56.1802 49.1432 56.0795 49.2943 55.9703 49.4959Z" fill="#CA1D1D"/>
</svg>
