<svg width="82" height="82" viewBox="0 0 82 82" fill="none" xmlns="http://www.w3.org/2000/svg">
<rect width="82" height="82" rx="20" fill="#D9D9D9"/>
<path d="M36.9969 16.0539C35.9844 16.1946 35 16.5133 33.9313 17.0383C30.875 18.5289 28.9063 21.3696 28.5125 24.8477C28.2782 26.9946 28.8407 29.2914 30.0782 31.1946C33.0407 35.7321 39.1625 36.9883 43.7282 33.9977C46.5688 32.1414 48.3219 28.6258 48.0969 25.2321C47.7688 20.1883 43.6907 16.1946 38.6657 16.0071C38.075 15.9883 37.325 16.0071 36.9969 16.0539ZM43.6063 21.3039C44.2532 21.6883 44.3938 22.5977 43.925 23.2352C43.775 23.4321 42.125 25.1289 40.25 26.9946C36.5282 30.6883 36.5 30.7164 35.7032 30.5008C35.4969 30.4446 35.2157 30.2852 35.0844 30.1446C34.9532 29.9946 34.3063 28.9539 33.6407 27.8196C32.4594 25.7946 32.4407 25.7477 32.4313 25.1758C32.4313 24.6883 32.4688 24.5664 32.6657 24.3508C33.2938 23.6758 34.1 23.6664 34.6907 24.3227C34.8032 24.4352 35.1594 24.9977 35.4782 25.5696C35.7969 26.1321 36.125 26.7039 36.2 26.8258C36.3407 27.0508 36.3594 27.0321 39.2188 24.1914C40.7938 22.6164 42.1719 21.2758 42.275 21.2196C42.5844 21.0602 43.2782 21.0977 43.6063 21.3039Z" fill="#CA1D1D"/>
<path d="M52.3629 16.5695C52.0066 17.9664 50.891 19.1101 49.541 19.457L49.0254 19.5976L49.4473 19.7101C50.8441 20.0851 51.866 21.0695 52.316 22.4664C52.4473 22.8601 52.5316 23.0382 52.541 22.8976C52.5504 22.5601 52.9254 21.6789 53.2816 21.1914C53.7129 20.5914 54.416 20.0945 55.2316 19.8039L55.9441 19.5507L55.5785 19.4945C54.9691 19.3914 54.1066 18.9039 53.591 18.3695C53.066 17.7976 52.7848 17.3007 52.5973 16.5976L52.4754 16.1195L52.3629 16.5695Z" fill="#CA1D1D"/>
<path d="M23.4781 26.001C23.4781 26.3385 23.0281 27.1541 22.6156 27.576C22.1937 27.9978 21.7156 28.2885 21.0875 28.4853C20.8812 28.551 20.7968 28.6072 20.9 28.6072C21.2562 28.626 22.2125 29.151 22.6156 29.5635C23.0281 29.9853 23.375 30.5947 23.4781 31.0916C23.5343 31.3728 23.5343 31.3728 23.7031 30.876C24.0406 29.8353 24.8468 29.0197 25.8218 28.7385L26.3468 28.5791L25.775 28.3822C24.7812 28.0541 24.0406 27.3041 23.7125 26.2916C23.5343 25.7666 23.4781 25.6916 23.4781 26.001Z" fill="#CA1D1D"/>
<path d="M19.0346 35.5725C16.7283 37.8975 15.3502 40.7568 15.0408 43.9068C14.9377 44.9287 15.0408 46.635 15.2283 46.9818C15.3127 47.1412 17.2065 48.0225 17.4596 48.0225C17.5346 48.0225 17.5721 47.8537 17.5721 47.5162C17.5721 46.71 17.8252 44.9662 18.0877 43.9912C18.819 41.3006 20.0565 39.1725 22.1002 37.11C22.7096 36.5006 23.1971 35.985 23.1783 35.9756C22.8408 35.7225 20.5065 34.5225 20.3283 34.5225C20.1502 34.5225 19.8315 34.7756 19.0346 35.5725Z" fill="#CA1D1D"/>
<path d="M54.7442 35.2256C54.0786 35.61 53.4879 35.9381 53.4411 35.9568C53.3942 35.9756 53.8161 36.4443 54.3879 37.0162C57.2192 39.81 58.7192 43.1006 58.9723 47.0568C59.0192 47.7225 59.0754 48.0225 59.1504 48.0225C59.3661 48.0225 61.2129 47.1787 61.3254 47.0287C61.4754 46.8131 61.5879 45.7912 61.5786 44.6943C61.5317 41.4412 60.0504 38.085 57.5473 35.5725C56.6848 34.7193 56.4411 34.5225 56.2254 34.5318C56.0754 34.5318 55.4286 34.8412 54.7442 35.2256Z" fill="#CA1D1D"/>
<path d="M22.9533 38.1977C21.7439 39.4445 21.0783 40.3539 20.4033 41.7039C19.6346 43.232 19.1096 45.1633 19.0064 46.8039L18.9502 47.6945L21.4721 48.9883C23.9564 50.2633 24.0033 50.2914 24.6596 50.9945L25.3252 51.707L25.7564 50.957C26.4971 49.6633 27.3033 49.1758 28.5502 49.2602C29.5627 49.3352 30.4721 50.0008 30.8283 50.9477L30.9971 51.3695L31.4283 51.2852C31.9346 51.1914 32.5814 51.3039 33.1252 51.5852C33.5939 51.8195 34.2314 52.5508 34.3627 52.9914L34.4658 53.3289H35.2814C35.9846 53.3195 36.1533 53.357 36.5658 53.5727C37.1283 53.8727 37.6627 54.4539 37.8689 54.9977L38.0189 55.3914L38.6658 55.3539C39.0314 55.3352 39.4627 55.3633 39.6689 55.4289C40.2221 55.6164 40.8127 56.0664 41.1127 56.5352C41.3564 56.9195 41.5908 57.0883 42.9971 57.9039C44.3658 58.6914 44.6752 58.832 45.0221 58.832C46.0064 58.832 46.5783 57.6695 45.9689 56.9008C45.8658 56.7695 44.9002 56.1414 43.8221 55.5133C41.4877 54.1633 41.3189 53.9945 41.7689 53.4227C42.1064 52.9914 42.3502 53.0758 44.6002 54.3789C47.2346 55.907 47.2158 55.8977 47.6471 55.8977C48.6783 55.8977 49.3252 54.6227 48.7158 53.7695C48.6033 53.6102 47.7783 53.0758 46.5877 52.3914C45.5283 51.7727 44.5721 51.1633 44.4689 51.032C44.1502 50.6383 44.4689 49.9914 44.9846 49.9914C45.0971 49.9914 46.2221 50.5914 47.4783 51.3133C49.9346 52.7289 50.2814 52.8602 50.8252 52.5789C51.3314 52.3258 51.6033 51.9133 51.6033 51.407C51.6033 50.807 51.3314 50.4133 50.6189 49.982C49.5314 49.3258 43.8596 46.0727 43.3908 45.8383C42.5189 45.3977 41.6846 45.182 40.8783 45.182C39.8658 45.182 39.1721 45.3789 37.7002 46.0633C35.2721 47.1883 34.9064 47.3102 33.7908 47.3195C32.8346 47.3195 32.7689 47.3102 32.1033 46.9727C30.6596 46.2602 29.9564 45.1445 30.2283 44.0008C30.4158 43.2227 30.7439 42.9414 33.6408 41.1414C35.1127 40.2227 36.3033 39.4445 36.2752 39.3977C36.2564 39.3602 35.9283 39.2289 35.5533 39.107C34.7658 38.8539 33.9314 38.8352 30.6971 38.9664C29.0564 39.032 28.6533 39.0227 27.9502 38.8914C26.8814 38.6852 25.6814 38.2633 24.7252 37.7477C24.2939 37.5227 23.9096 37.3352 23.8721 37.3352C23.8252 37.3352 23.4127 37.7289 22.9533 38.1977Z" fill="#CA1D1D"/>
<path d="M52.4 37.4189C52.1 37.7096 50.1969 38.5627 49.4282 38.7502C48.0313 39.0783 46.7469 39.0408 45.0875 38.6002C43.85 38.2721 43.7188 38.2533 42.6969 38.3002C41.525 38.3471 40.6719 38.5721 39.575 39.1252C38.7782 39.5283 32.1219 43.6814 31.8032 43.9721C31.2875 44.4502 31.5875 45.1252 32.525 45.6502C33.0032 45.9127 33.1813 45.9596 33.6969 45.9596C34.5219 45.9596 34.8032 45.8658 36.65 45.0221C38.75 44.0564 39.3219 43.8877 40.5407 43.8314C41.6563 43.7752 42.3969 43.9158 43.4563 44.3564C43.8125 44.5064 45.8188 45.6127 47.9188 46.8221C50.6469 48.3877 51.8657 49.1283 52.1844 49.4471L52.6344 49.8877L55.1188 48.7439L57.6032 47.6096V47.1221C57.6032 46.3439 57.2563 44.5158 56.9094 43.4752C56.2532 41.5252 55.2407 39.8752 53.7219 38.3002C52.8407 37.3814 52.5969 37.2221 52.4 37.4189Z" fill="#CA1D1D"/>
<path d="M27.9316 50.6566C27.5004 50.7785 27.2379 51.116 26.3473 52.6629C25.7285 53.7504 25.541 54.1535 25.541 54.4254C25.541 55.6441 26.9941 56.2347 27.8098 55.3535C28.2129 54.9222 29.591 52.4472 29.6379 52.0629C29.7598 51.1629 28.8223 50.3941 27.9316 50.6566Z" fill="#CA1D1D"/>
<path d="M31.3066 52.7477C31.1566 52.8133 30.9504 52.954 30.866 53.0477C30.7816 53.1508 30.1348 54.2196 29.441 55.429C28.316 57.3696 28.166 57.679 28.166 58.054C28.166 59.0665 29.1598 59.6571 30.0973 59.2165C30.4441 59.0477 30.5379 58.9071 32.2816 55.8602C33.0316 54.5571 33.1348 54.3133 33.1348 53.9196C33.1348 52.9915 32.1691 52.3727 31.3066 52.7477Z" fill="#CA1D1D"/>
<path d="M34.6629 54.8568C34.3066 55.0818 34.3441 55.0255 33.0973 57.2005C32.2348 58.7099 32.1035 58.9911 32.1035 59.3568C32.1035 60.2099 32.6848 60.7349 33.5285 60.6599C33.866 60.6224 34.0629 60.538 34.2598 60.3505C34.5973 60.0318 36.5848 56.6005 36.6598 56.2068C36.7348 55.813 36.566 55.3255 36.2285 55.0068C35.8535 54.6505 35.1035 54.5755 34.6629 54.8568Z" fill="#CA1D1D"/>
<path d="M38.5253 56.713C38.0847 56.8255 37.7472 57.2474 36.9597 58.6255C36.5097 59.4224 36.1159 60.2005 36.0784 60.3599C36.0409 60.5567 36.0878 60.8005 36.219 61.0911C36.369 61.4474 36.4909 61.5599 36.8472 61.7192C37.3253 61.9349 37.6909 61.9067 38.1409 61.6349C38.3097 61.5317 38.7034 60.9692 39.2565 60.0224C39.9503 58.8317 40.1097 58.4849 40.1378 58.1005C40.1847 57.5849 39.9784 57.1536 39.5847 56.8911C39.3315 56.7317 38.7972 56.638 38.5253 56.713Z" fill="#CA1D1D"/>
<path d="M41.0565 59.5818C40.8034 60.0881 40.5784 60.5475 40.5596 60.585C40.5034 60.735 41.6378 61.2412 42.0128 61.2412C42.5284 61.2412 42.9409 60.9506 43.0815 60.5006C43.2784 59.8443 43.0065 59.4693 41.9471 58.8787L41.5253 58.6537L41.0565 59.5818Z" fill="#CA1D1D"/>
</svg>
