<svg width="82" height="82" viewBox="0 0 82 82" fill="none" xmlns="http://www.w3.org/2000/svg">
<rect width="82" height="82" rx="20" fill="#D9D9D9"/>
<path d="M45.863 22.0614C42.2921 22.5571 39.5841 25.0815 38.8773 28.579C38.6937 29.5061 38.7396 31.2319 38.9783 32.1131C39.7218 34.8028 41.723 36.9141 44.3484 37.777C45.0827 38.0157 45.4132 38.0616 46.4046 38.1075C48.2497 38.1809 49.6267 37.8413 51.022 36.9692C54.8132 34.61 55.9974 29.7723 53.7392 25.926C53.3077 25.1917 52.2062 24.0167 51.4534 23.4751C49.9296 22.3827 47.6531 21.8044 45.863 22.0614ZM49.5349 28.1659C49.6818 28.3128 49.7644 28.4963 49.7644 28.6891C49.7644 28.9645 49.5808 29.1756 47.8183 30.8922C46.7443 31.9387 45.7529 32.8383 45.6152 32.9026C45.2113 33.0678 44.945 32.8934 43.9077 31.7919C42.8888 30.6903 42.8154 30.5159 43.1825 30.0844C43.3386 29.91 43.4855 29.8366 43.6966 29.8366C43.9445 29.8366 44.1097 29.9467 44.6697 30.5067L45.349 31.1768L45.8814 30.7087C46.1751 30.4516 46.8085 29.8458 47.2859 29.3592C48.7087 27.9088 49.0851 27.7069 49.5349 28.1659Z" fill="#CA1D1D"/>
<path d="M30.4407 29.4138C29.0637 29.6158 27.6684 30.6806 27.035 32.0025C26.4658 33.205 26.4567 34.6829 27.0258 35.8579C28.2192 38.3732 31.3311 39.3095 33.626 37.8408C34.2135 37.4552 35.003 36.5831 35.2967 35.9956C35.5446 35.4908 35.8108 34.4351 35.8108 33.9486C35.8108 33.4621 35.5446 32.4064 35.2967 31.9015C35.003 31.3048 34.2135 30.4328 33.626 30.0656C32.7539 29.5056 31.5239 29.2578 30.4407 29.4138Z" fill="#CA1D1D"/>
<path d="M34.6176 38.1815C33.7914 38.4018 33.1397 38.7782 32.5063 39.4116C31.8361 40.0725 31.4781 40.6784 31.267 41.477C31.0192 42.4593 31.1201 43.4598 31.5883 44.3686C31.9738 45.1214 37.9406 55.421 38.1701 55.7331C38.5465 56.238 39.2717 56.7429 39.8776 56.9356C40.3733 57.0825 41.0617 57.1284 44.9906 57.2661C49.9936 57.4313 50.2781 57.468 50.8014 57.9913C50.9666 58.1565 51.7469 59.3958 52.5272 60.7452C53.2983 62.0946 54.0785 63.3522 54.2529 63.5266C55.024 64.3253 56.3826 64.5548 57.4475 64.0682C58.9897 63.3614 59.6506 61.654 58.9529 60.2036C58.4113 59.0745 54.9047 53.1169 54.5467 52.7038C54.0877 52.1805 53.5186 51.8409 52.8209 51.6757C52.5272 51.6022 51.0309 51.4554 49.4887 51.3452C47.9465 51.235 46.5328 51.1065 46.3492 51.0606C45.6608 50.8862 45.3119 50.4915 44.3022 48.729L43.3658 47.0766L46.6338 47.0307C49.8008 46.9848 49.9201 46.9757 50.3608 46.7737C50.985 46.4891 51.4807 45.9934 51.7928 45.3325C52.0131 44.8735 52.059 44.6624 52.059 44.0841C52.059 43.4966 52.0131 43.3038 51.7836 42.8264C51.4623 42.193 50.9391 41.679 50.324 41.3944C49.911 41.2108 49.7641 41.2016 44.9447 41.1557L39.9969 41.1098L39.5746 40.403C39.0881 39.5677 38.4363 38.8792 37.8305 38.5487C36.9492 38.0622 35.6182 37.9153 34.6176 38.1815Z" fill="#CA1D1D"/>
<path d="M24.5474 40.4574C22.537 41.1092 21.4722 43.3399 22.2616 45.2309C22.3442 45.4237 25.0431 50.142 28.2559 55.7233C32.6897 63.4067 34.2319 66.0045 34.5899 66.3992C34.9204 66.7572 35.2509 67.0051 35.6456 67.1887L36.2239 67.4549L42.6864 67.4824C49.8282 67.51 49.6722 67.5192 50.5534 66.9317C51.5632 66.2432 52.169 65.1233 52.169 63.9207C52.1782 63.0395 52.013 62.5897 51.2052 61.2127C50.1587 59.4227 49.4886 58.927 47.8729 58.7709C47.3681 58.725 45.1374 58.624 42.8975 58.5506C39.1247 58.4313 38.7942 58.4129 38.4362 58.2293C38.2159 58.1283 37.9497 57.9356 37.8212 57.8071C37.7018 57.6877 35.5722 54.0617 33.0936 49.7565C30.1194 44.5975 28.4304 41.7701 28.155 41.458C27.5032 40.742 26.7413 40.3932 25.7224 40.3565C25.2267 40.3381 24.786 40.3748 24.5474 40.4574Z" fill="#CA1D1D"/>
</svg>
