<svg width="57" height="42" viewBox="0 0 57 42" fill="none" xmlns="http://www.w3.org/2000/svg">
<g opacity="0.3">
<path d="M22.1953 0.48584H0.00610352V19.8925H12.6273C12.5109 31.9769 1.2459 34.2594 1.2459 34.2594C1.2459 34.2594 1.18652 34.6641 1.2459 41.9995C20.0269 38.3983 22.0267 24.2771 22.1894 19.8925H22.1941V19.7714C22.2191 19.0213 22.1941 18.5512 22.1941 18.5512V0.48584H22.1953Z" fill="white"/>
<path d="M56.9947 18.5501V0.48584H34.8066V19.8925H47.429C47.3126 31.9769 36.0476 34.2594 36.0476 34.2594C36.0476 34.2594 35.9882 34.6641 36.0476 41.9995C54.8286 38.3983 56.8284 24.2771 56.9911 19.8925H56.9959V19.7714C57.0196 19.0213 56.9947 18.5501 56.9947 18.5501Z" fill="white"/>
</g>
</svg>
