<svg width="57" height="43" viewBox="0 0 57 43" fill="none" xmlns="http://www.w3.org/2000/svg">
<g opacity="0.3">
<path d="M34.82 0.60498H57.0092V20.0116H44.388C44.5044 32.096 55.7694 34.3785 55.7694 34.3785C55.7694 34.3785 55.8288 34.7832 55.7694 42.1186C36.9885 38.5174 34.9886 24.3962 34.8259 20.0116H34.8212V19.8906C34.7963 19.1404 34.8212 18.6704 34.8212 18.6704V0.60498H34.82Z" fill="white"/>
<path d="M0.0206547 18.6692V0.60498H22.2087V20.0116H9.5863C9.70268 32.096 20.9677 34.3785 20.9677 34.3785C20.9677 34.3785 21.0271 34.7832 20.9677 42.1186C2.18673 38.5174 0.186913 24.3962 0.0242195 20.0116H0.0194664V19.8906C-0.00428391 19.1404 0.0206547 18.6692 0.0206547 18.6692Z" fill="white"/>
</g>
</svg>
